<svg xmlns="http://www.w3.org/2000/svg" width="256" height="256" viewBox="0 0 256 256"><path fill="#787878" d="M12.7 202.5c9.8 0 11.4-1.6 11.4-15.8V68.4c0-13.3-1.6-14.9-11.4-14.9v-3.1h45c15.3 0 33.1 10 33.1 40.8 0 36.3-20.2 43-36.4 43.4-4.9.2-9.3-.2-10.8-.9v53c0 14.2 1.5 15.8 12.8 15.8v3.3H12.7zm40.4-71.4c12-.7 18.2-12.4 18.2-39.7 0-23-2-37.9-16.9-37.9h-2.6c-7.8 0-8.2 2.7-8.2 18.6v58.1c1.5.7 4.2.9 6.6.9zm108.2 71.4c10.2 0 11.3-2 11.3-17.6V68.8c0-14-1.1-15.3-11.3-15.3v-3.1h40.1c27.5 0 45.9 29.7 45.9 76.5s-17.1 78.9-45.9 78.9h-40.1zm64.5-74.5c0-36.2-2.9-74.5-25.8-74.5-6.8 0-7.9 2-7.9 16V186c0 14.9.6 16.5 7.9 16.5 23.1 0 25.8-37.3 25.8-74.5z"/><path fill="none" stroke="#feec8e" stroke-linecap="round" stroke-miterlimit="10" stroke-width="3.82" d="M123.2 31.1v193.8"/><path fill="#feec8e" d="M121.4 173.1s5.1-14.3-12.1-20.9c-3.7 19.8 12.1 20.9 12.1 20.9zm0-70s5.1-14.2-12.1-20.9c-3.7 19.8 12.1 20.9 12.1 20.9zm3.7 102.7s-5.1-14.3 12.1-20.9c3.7 19.8-12.1 20.9-12.1 20.9zm0-67.3s-5.1-14.3 12.1-21c3.7 19.9-12.1 21-12.1 21zm0-67.4s-5.1-14.2 12.1-20.9c3.7 19.8-12.1 20.9-12.1 20.9z"/></svg>